<svg width="117" height="153" viewBox="0 0 117 153" fill="none" xmlns="http://www.w3.org/2000/svg">
<path d="M92.6201 46.51C90.4468 26.7633 78.4766 16.89 56.71 16.89C47.3766 16.89 39.6333 18.8167 33.48 22.67C27.3266 26.5234 24.2467 32.8567 24.24 41.67C24.1656 43.919 24.5815 46.1572 25.4587 48.2294C26.336 50.3015 27.6535 52.1581 29.3201 53.67C33.1571 57.032 37.6982 59.4922 42.6101 60.87C48.5269 62.6745 54.5353 64.1632 60.6101 65.33C67.1701 66.6166 73.7632 68.1733 80.3899 70C86.6707 71.6939 92.7573 74.04 98.55 77C104.046 79.8548 108.646 84.174 111.84 89.48C115.22 94.96 116.91 101.553 116.91 109.26C117.042 116.191 115.289 123.027 111.84 129.04C108.624 134.623 104.009 139.273 98.45 142.53C92.8094 145.815 86.7277 148.277 80.3899 149.84C73.8214 151.47 67.0777 152.286 60.3101 152.27C42.9767 152.27 28.6732 147.937 17.3999 139.27C6.12657 130.603 0.479961 117.957 0.459961 101.33H18.72C18.72 112.817 22.7766 121.507 30.8899 127.4C39.0032 133.293 49.0032 136.233 60.8899 136.22C71.1632 136.22 79.8533 134.193 86.96 130.14C94.0666 126.087 97.6168 119.323 97.6101 109.85C97.6948 107.393 97.2901 104.945 96.4197 102.646C95.5493 100.347 94.2305 98.2443 92.54 96.46C88.8281 92.7501 84.2657 90.0038 79.25 88.46C73.3283 86.5214 67.2979 84.932 61.1899 83.7C54.6299 82.3666 48.0366 80.8433 41.4099 79.13C35.1688 77.5768 29.0885 75.4373 23.25 72.74C17.8608 70.2458 13.2626 66.3154 9.95996 61.38C6.57996 56.38 4.88989 50.2933 4.88989 43.12C4.88989 29.32 10.0301 18.8034 20.3101 11.5701C30.5901 4.33674 42.9666 0.716628 57.4399 0.709961C73.1333 0.709961 85.7999 4.53339 95.4399 12.1801C105.08 19.8267 110.187 31.2901 110.76 46.5701L92.6201 46.51Z" fill="#100D0A"/>
</svg>
