<svg width="120" height="145" viewBox="0 0 120 145" fill="none" xmlns="http://www.w3.org/2000/svg">
<path d="M0.600098 0.0999756H50.3101C72.9034 0.0999756 90.1467 5.84998 102.04 17.35C113.933 28.85 119.887 46.0966 119.9 69.09C119.9 119.67 96.7034 144.963 50.3101 144.97H0.600098V0.0999756ZM19.8799 128.73H51.8799C55.3092 128.739 58.7347 128.502 62.1299 128.02C66.4462 127.248 70.6402 125.903 74.6001 124.02C79.4297 121.919 83.7811 118.856 87.3899 115.02C90.8966 111.233 93.9734 105.62 96.6201 98.1801C99.2668 90.7401 100.583 81.9467 100.57 71.8C100.57 53.68 96.8167 39.92 89.3101 30.52C81.8034 21.12 69.4701 16.42 52.3101 16.42H19.8501L19.8799 128.73Z" fill="#100D0A"/>
</svg>
